<svg width="35" height="35" viewBox="0 0 35 35" fill="none" xmlns="http://www.w3.org/2000/svg">
<path d="M1 30L0.25 30L1 30ZM9.25 22V21.25V22ZM25.75 22V21.25V22ZM1.75 30C1.75 28.0848 2.53439 26.2431 3.93848 24.8816L2.89426 23.8047C1.204 25.4438 0.25 27.6718 0.25 30H1.75ZM3.93848 24.8816C5.34335 23.5193 7.25356 22.75 9.25 22.75V21.25C6.87037 21.25 4.58373 22.1664 2.89426 23.8047L3.93848 24.8816ZM9.25 22.75H25.75V21.25H9.25V22.75ZM25.75 22.75C27.7464 22.75 29.6566 23.5193 31.0615 24.8816L32.1057 23.8047C30.4163 22.1664 28.1296 21.25 25.75 21.25V22.75ZM31.0615 24.8816C32.4656 26.2431 33.25 28.0848 33.25 30H34.75C34.75 27.6718 33.796 25.4438 32.1057 23.8047L31.0615 24.8816ZM33.25 30C33.25 30.8544 32.9002 31.6786 32.2697 32.29L33.3139 33.3669C34.2306 32.478 34.75 31.2674 34.75 30H33.25ZM32.2697 32.29C31.6384 32.9022 30.7774 33.25 29.875 33.25V34.75C31.1606 34.75 32.398 34.255 33.3139 33.3669L32.2697 32.29ZM29.875 33.25H5.125V34.75H29.875V33.25ZM5.125 33.25C4.22258 33.25 3.36158 32.9022 2.73029 32.29L1.68607 33.3669C2.60196 34.255 3.83939 34.75 5.125 34.75V33.25ZM2.73029 32.29C2.09979 31.6786 1.75 30.8544 1.75 30L0.25 30C0.25 31.2674 0.769403 32.478 1.68607 33.3669L2.73029 32.29ZM22.75 7C22.75 9.8995 20.3995 12.25 17.5 12.25V13.75C21.2279 13.75 24.25 10.7279 24.25 7H22.75ZM17.5 12.25C14.6005 12.25 12.25 9.8995 12.25 7H10.75C10.75 10.7279 13.7721 13.75 17.5 13.75V12.25ZM12.25 7C12.25 4.10051 14.6005 1.75 17.5 1.75V0.25C13.7721 0.25 10.75 3.27208 10.75 7H12.25ZM17.5 1.75C20.3995 1.75 22.75 4.10051 22.75 7H24.25C24.25 3.27208 21.2279 0.25 17.5 0.25V1.75Z" fill="black"/>
</svg>
