<svg width="33" height="33" viewBox="0 0 33 33" fill="none" xmlns="http://www.w3.org/2000/svg">
<path d="M31.5745 33L18.9632 20.3887C17.9562 21.2461 16.7981 21.9097 15.4889 22.3797C14.1798 22.8496 12.8642 23.0846 11.5423 23.0846C8.31638 23.0846 5.5861 21.9679 3.35146 19.7346C1.11715 17.5013 0 14.7727 0 11.5488C0 8.3246 1.11665 5.59365 3.34995 3.35599C5.58325 1.11866 8.31185 0 11.5358 0C14.76 0 17.4909 1.11715 19.7286 3.35146C21.9659 5.5861 23.0846 8.31638 23.0846 11.5423C23.0846 12.9418 22.8367 14.2961 22.3409 15.6052C21.8451 16.9144 21.1944 18.0337 20.3887 18.9632L33 31.575L31.5745 33ZM11.5423 21.0705C14.2147 21.0705 16.4708 20.1506 18.3107 18.3107C20.1506 16.4711 21.0705 14.215 21.0705 11.5423C21.0705 8.86959 20.1506 6.61346 18.3107 4.77392C16.4708 2.93404 14.2147 2.0141 11.5423 2.0141C8.86959 2.0141 6.61346 2.93404 4.77392 4.77392C2.93404 6.61346 2.0141 8.86959 2.0141 11.5423C2.0141 14.215 2.93404 16.4711 4.77392 18.3107C6.61346 20.1506 8.86959 21.0705 11.5423 21.0705Z" fill="#1C1B1F"/>
</svg>
